<svg width="1000" height="500" xmlns="http://www.w3.org/2000/svg">
  <!-- Background -->
  <rect width="1000" height="500" fill="#f8f9fa"/>
  
  <!-- Title -->
  <text x="500" y="35" text-anchor="middle" font-size="22" font-weight="bold" fill="#212121">Hosting Strategy Trade-offs</text>
  
  <!-- Column Headers -->
  <rect x="50" y="60" width="200" height="50" fill="#424242" rx="5"/>
  <text x="150" y="92" text-anchor="middle" font-size="16" font-weight="bold" fill="white">Strategy</text>
  
  <rect x="270" y="60" width="180" height="50" fill="#424242" rx="5"/>
  <text x="360" y="92" text-anchor="middle" font-size="16" font-weight="bold" fill="white">Cost</text>
  
  <rect x="470" y="60" width="240" height="50" fill="#424242" rx="5"/>
  <text x="590" y="92" text-anchor="middle" font-size="16" font-weight="bold" fill="white">Management</text>
  
  <rect x="730" y="60" width="220" height="50" fill="#424242" rx="5"/>
  <text x="840" y="92" text-anchor="middle" font-size="16" font-weight="bold" fill="white">Characteristics</text>
  
  <!-- Row 1: Physical Hardware -->
  <rect x="50" y="120" width="200" height="80" fill="#ffebee" stroke="#c62828" stroke-width="2" rx="5"/>
  <text x="150" y="155" text-anchor="middle" font-size="15" font-weight="bold" fill="#b71c1c">Physical Hardware</text>
  <text x="150" y="175" text-anchor="middle" font-size="11" fill="#666">(Own GPUs)</text>
  
  <rect x="270" y="120" width="180" height="80" fill="#ffcdd2" stroke="#c62828" stroke-width="2" rx="5"/>
  <text x="360" y="150" text-anchor="middle" font-size="14" font-weight="bold" fill="#b71c1c">High Cost</text>
  <text x="360" y="172" text-anchor="middle" font-size="20">💰💰💰</text>
  
  <rect x="470" y="120" width="240" height="80" fill="#e8f5e9" stroke="#2e7d32" stroke-width="2" rx="5"/>
  <text x="590" y="155" text-anchor="middle" font-size="14" font-weight="bold" fill="#1b5e20">Full Control</text>
  <text x="590" y="175" text-anchor="middle" font-size="11" fill="#666">Complete ownership</text>
  
  <rect x="730" y="120" width="220" height="80" fill="#fff3e0" stroke="#e65100" stroke-width="2" rx="5"/>
  <text x="840" y="155" text-anchor="middle" font-size="14" font-weight="bold" fill="#bf360c">High Complexity</text>
  <text x="840" y="175" text-anchor="middle" font-size="11" fill="#666">Expert setup needed</text>
  
  <!-- Row 2: Managed Hosting -->
  <rect x="50" y="210" width="200" height="80" fill="#e3f2fd" stroke="#1565c0" stroke-width="2" rx="5"/>
  <text x="150" y="245" text-anchor="middle" font-size="15" font-weight="bold" fill="#0d47a1">Managed Hosting</text>
  <text x="150" y="265" text-anchor="middle" font-size="11" fill="#666">(e.g., Replicate)</text>
  
  <rect x="270" y="210" width="180" height="80" fill="#fff9c4" stroke="#f57f17" stroke-width="2" rx="5"/>
  <text x="360" y="240" text-anchor="middle" font-size="14" font-weight="bold" fill="#e65100">Medium Cost</text>
  <text x="360" y="262" text-anchor="middle" font-size="20">💰💰</text>
  
  <rect x="470" y="210" width="240" height="80" fill="#e8f5e9" stroke="#2e7d32" stroke-width="2" rx="5"/>
  <text x="590" y="245" text-anchor="middle" font-size="14" font-weight="bold" fill="#1b5e20">Low Maintenance</text>
  <text x="590" y="265" text-anchor="middle" font-size="11" fill="#666">Fully managed</text>
  
  <rect x="730" y="210" width="220" height="80" fill="#e8f5e9" stroke="#2e7d32" stroke-width="2" rx="5"/>
  <text x="840" y="245" text-anchor="middle" font-size="14" font-weight="bold" fill="#1b5e20">Easy Scaling</text>
  <text x="840" y="265" text-anchor="middle" font-size="11" fill="#666">Automatic scaling</text>
  
  <!-- Row 3: Virtual GPUs -->
  <rect x="50" y="300" width="200" height="80" fill="#f3e5f5" stroke="#6a1b9a" stroke-width="2" rx="5"/>
  <text x="150" y="335" text-anchor="middle" font-size="15" font-weight="bold" fill="#4a148c">Virtual GPUs</text>
  <text x="150" y="355" text-anchor="middle" font-size="11" fill="#666">(e.g., AWS/RunPod)</text>
  
  <rect x="270" y="300" width="180" height="80" fill="#dcedc8" stroke="#558b2f" stroke-width="2" rx="5"/>
  <text x="360" y="330" text-anchor="middle" font-size="14" font-weight="bold" fill="#33691e">Variable Cost</text>
  <text x="360" y="352" text-anchor="middle" font-size="20">💰</text>
  
  <rect x="470" y="300" width="240" height="80" fill="#e3f2fd" stroke="#1565c0" stroke-width="2" rx="5"/>
  <text x="590" y="335" text-anchor="middle" font-size="14" font-weight="bold" fill="#0d47a1">High Scalability</text>
  <text x="590" y="355" text-anchor="middle" font-size="11" fill="#666">On-demand resources</text>
  
  <rect x="730" y="300" width="220" height="80" fill="#fff9c4" stroke="#f57f17" stroke-width="2" rx="5"/>
  <text x="840" y="335" text-anchor="middle" font-size="14" font-weight="bold" fill="#e65100">Medium Complexity</text>
  <text x="840" y="355" text-anchor="middle" font-size="11" fill="#666">Some config required</text>
  
  <!-- Row 4: Laptop (Local) -->
  <rect x="50" y="390" width="200" height="80" fill="#e0f2f1" stroke="#00695c" stroke-width="2" rx="5"/>
  <text x="150" y="425" text-anchor="middle" font-size="15" font-weight="bold" fill="#004d40">Laptop (Local)</text>
  <text x="150" y="445" text-anchor="middle" font-size="11" fill="#666">(Ollama, LM Studio)</text>
  
  <rect x="270" y="390" width="180" height="80" fill="#c8e6c9" stroke="#2e7d32" stroke-width="2" rx="5"/>
  <text x="360" y="420" text-anchor="middle" font-size="14" font-weight="bold" fill="#1b5e20">Low Cost</text>
  <text x="360" y="442" text-anchor="middle" font-size="20">💰</text>
  
  <rect x="470" y="390" width="240" height="80" fill="#e8f5e9" stroke="#2e7d32" stroke-width="2" rx="5"/>
  <text x="590" y="425" text-anchor="middle" font-size="14" font-weight="bold" fill="#1b5e20">High Privacy</text>
  <text x="590" y="445" text-anchor="middle" font-size="11" fill="#666">No data leaves device</text>
  
  <rect x="730" y="390" width="220" height="80" fill="#ffcdd2" stroke="#c62828" stroke-width="2" rx="5"/>
  <text x="840" y="425" text-anchor="middle" font-size="14" font-weight="bold" fill="#b71c1c">Limited Power</text>
  <text x="840" y="445" text-anchor="middle" font-size="11" fill="#666">Hardware constraints</text>
</svg>
