<svg width="800" height="400" xmlns="http://www.w3.org/2000/svg">
  <!-- Background -->
  <rect width="800" height="400" fill="#f8f9fa"/>
  
  <!-- Title -->
  <text x="400" y="30" text-anchor="middle" font-size="20" font-weight="bold" fill="#212121">Neural Network Structure</text>
  
  <!-- Input Layer -->
  <text x="80" y="70" text-anchor="middle" font-size="14" font-weight="bold" fill="#1565c0">Input Layer</text>
  <text x="80" y="88" text-anchor="middle" font-size="11" fill="#666">(Data)</text>
  
  <!-- Input neurons -->
  <circle cx="80" cy="130" r="18" fill="#2196f3" stroke="#1565c0" stroke-width="2"/>
  <circle cx="80" cy="190" r="18" fill="#2196f3" stroke="#1565c0" stroke-width="2"/>
  <circle cx="80" cy="250" r="18" fill="#2196f3" stroke="#1565c0" stroke-width="2"/>
  <circle cx="80" cy="310" r="18" fill="#2196f3" stroke="#1565c0" stroke-width="2"/>
  
  <!-- Hidden Layer 1 -->
  <text x="250" y="70" text-anchor="middle" font-size="14" font-weight="bold" fill="#2e7d32">Hidden Layer 1</text>
  <text x="250" y="88" text-anchor="middle" font-size="11" fill="#666">(Processing)</text>
  
  <!-- Hidden layer 1 neurons -->
  <circle cx="250" cy="110" r="18" fill="#66bb6a" stroke="#2e7d32" stroke-width="2"/>
  <circle cx="250" cy="160" r="18" fill="#66bb6a" stroke="#2e7d32" stroke-width="2"/>
  <circle cx="250" cy="210" r="18" fill="#66bb6a" stroke="#2e7d32" stroke-width="2"/>
  <circle cx="250" cy="260" r="18" fill="#66bb6a" stroke="#2e7d32" stroke-width="2"/>
  <circle cx="250" cy="310" r="18" fill="#66bb6a" stroke="#2e7d32" stroke-width="2"/>
  <circle cx="250" cy="360" r="18" fill="#66bb6a" stroke="#2e7d32" stroke-width="2"/>
  
  <!-- Hidden Layer 2 -->
  <text x="450" y="70" text-anchor="middle" font-size="14" font-weight="bold" fill="#2e7d32">Hidden Layer 2</text>
  <text x="450" y="88" text-anchor="middle" font-size="11" fill="#666">(Processing)</text>
  
  <!-- Hidden layer 2 neurons -->
  <circle cx="450" cy="110" r="18" fill="#66bb6a" stroke="#2e7d32" stroke-width="2"/>
  <circle cx="450" cy="160" r="18" fill="#66bb6a" stroke="#2e7d32" stroke-width="2"/>
  <circle cx="450" cy="210" r="18" fill="#66bb6a" stroke="#2e7d32" stroke-width="2"/>
  <circle cx="450" cy="260" r="18" fill="#66bb6a" stroke="#2e7d32" stroke-width="2"/>
  <circle cx="450" cy="310" r="18" fill="#66bb6a" stroke="#2e7d32" stroke-width="2"/>
  <circle cx="450" cy="360" r="18" fill="#66bb6a" stroke="#2e7d32" stroke-width="2"/>
  
  <!-- Output Layer -->
  <text x="650" y="70" text-anchor="middle" font-size="14" font-weight="bold" fill="#d32f2f">Output Layer</text>
  <text x="650" y="88" text-anchor="middle" font-size="11" fill="#666">(Prediction)</text>
  
  <!-- Output neurons -->
  <circle cx="650" cy="190" r="18" fill="#ef5350" stroke="#d32f2f" stroke-width="2"/>
  <circle cx="650" cy="250" r="18" fill="#ef5350" stroke="#d32f2f" stroke-width="2"/>
  
  <!-- Connections from Input to Hidden Layer 1 -->
  <line x1="98" y1="130" x2="232" y2="110" stroke="#bdbdbd" stroke-width="1" opacity="0.6"/>
  <line x1="98" y1="130" x2="232" y2="160" stroke="#bdbdbd" stroke-width="1" opacity="0.6"/>
  <line x1="98" y1="130" x2="232" y2="210" stroke="#bdbdbd" stroke-width="1" opacity="0.6"/>
  <line x1="98" y1="130" x2="232" y2="260" stroke="#bdbdbd" stroke-width="1" opacity="0.6"/>
  <line x1="98" y1="130" x2="232" y2="310" stroke="#bdbdbd" stroke-width="1" opacity="0.6"/>
  <line x1="98" y1="130" x2="232" y2="360" stroke="#bdbdbd" stroke-width="1" opacity="0.6"/>
  
  <line x1="98" y1="190" x2="232" y2="110" stroke="#bdbdbd" stroke-width="1" opacity="0.6"/>
  <line x1="98" y1="190" x2="232" y2="160" stroke="#bdbdbd" stroke-width="1" opacity="0.6"/>
  <line x1="98" y1="190" x2="232" y2="210" stroke="#bdbdbd" stroke-width="1" opacity="0.6"/>
  <line x1="98" y1="190" x2="232" y2="260" stroke="#bdbdbd" stroke-width="1" opacity="0.6"/>
  <line x1="98" y1="190" x2="232" y2="310" stroke="#bdbdbd" stroke-width="1" opacity="0.6"/>
  <line x1="98" y1="190" x2="232" y2="360" stroke="#bdbdbd" stroke-width="1" opacity="0.6"/>
  
  <line x1="98" y1="250" x2="232" y2="110" stroke="#bdbdbd" stroke-width="1" opacity="0.6"/>
  <line x1="98" y1="250" x2="232" y2="160" stroke="#bdbdbd" stroke-width="1" opacity="0.6"/>
  <line x1="98" y1="250" x2="232" y2="210" stroke="#bdbdbd" stroke-width="1" opacity="0.6"/>
  <line x1="98" y1="250" x2="232" y2="260" stroke="#bdbdbd" stroke-width="1" opacity="0.6"/>
  <line x1="98" y1="250" x2="232" y2="310" stroke="#bdbdbd" stroke-width="1" opacity="0.6"/>
  <line x1="98" y1="250" x2="232" y2="360" stroke="#bdbdbd" stroke-width="1" opacity="0.6"/>
  
  <line x1="98" y1="310" x2="232" y2="110" stroke="#bdbdbd" stroke-width="1" opacity="0.6"/>
  <line x1="98" y1="310" x2="232" y2="160" stroke="#bdbdbd" stroke-width="1" opacity="0.6"/>
  <line x1="98" y1="310" x2="232" y2="210" stroke="#bdbdbd" stroke-width="1" opacity="0.6"/>
  <line x1="98" y1="310" x2="232" y2="260" stroke="#bdbdbd" stroke-width="1" opacity="0.6"/>
  <line x1="98" y1="310" x2="232" y2="310" stroke="#bdbdbd" stroke-width="1" opacity="0.6"/>
  <line x1="98" y1="310" x2="232" y2="360" stroke="#bdbdbd" stroke-width="1" opacity="0.6"/>
  
  <!-- Connections from Hidden Layer 1 to Hidden Layer 2 -->
  <line x1="268" y1="110" x2="432" y2="110" stroke="#9e9e9e" stroke-width="1.5" opacity="0.5"/>
  <line x1="268" y1="110" x2="432" y2="160" stroke="#9e9e9e" stroke-width="1.5" opacity="0.5"/>
  <line x1="268" y1="110" x2="432" y2="210" stroke="#9e9e9e" stroke-width="1.5" opacity="0.5"/>
  <line x1="268" y1="160" x2="432" y2="210" stroke="#9e9e9e" stroke-width="1.5" opacity="0.5"/>
  <line x1="268" y1="160" x2="432" y2="260" stroke="#9e9e9e" stroke-width="1.5" opacity="0.5"/>
  <line x1="268" y1="210" x2="432" y2="160" stroke="#9e9e9e" stroke-width="1.5" opacity="0.5"/>
  <line x1="268" y1="210" x2="432" y2="260" stroke="#9e9e9e" stroke-width="1.5" opacity="0.5"/>
  <line x1="268" y1="260" x2="432" y2="210" stroke="#9e9e9e" stroke-width="1.5" opacity="0.5"/>
  <line x1="268" y1="260" x2="432" y2="310" stroke="#9e9e9e" stroke-width="1.5" opacity="0.5"/>
  <line x1="268" y1="310" x2="432" y2="260" stroke="#9e9e9e" stroke-width="1.5" opacity="0.5"/>
  <line x1="268" y1="310" x2="432" y2="360" stroke="#9e9e9e" stroke-width="1.5" opacity="0.5"/>
  <line x1="268" y1="360" x2="432" y2="310" stroke="#9e9e9e" stroke-width="1.5" opacity="0.5"/>
  <line x1="268" y1="360" x2="432" y2="360" stroke="#9e9e9e" stroke-width="1.5" opacity="0.5"/>
  
  <!-- Connections from Hidden Layer 2 to Output -->
  <line x1="468" y1="110" x2="632" y2="190" stroke="#757575" stroke-width="2" opacity="0.6"/>
  <line x1="468" y1="110" x2="632" y2="250" stroke="#757575" stroke-width="2" opacity="0.6"/>
  <line x1="468" y1="160" x2="632" y2="190" stroke="#757575" stroke-width="2" opacity="0.6"/>
  <line x1="468" y1="160" x2="632" y2="250" stroke="#757575" stroke-width="2" opacity="0.6"/>
  <line x1="468" y1="210" x2="632" y2="190" stroke="#757575" stroke-width="2" opacity="0.6"/>
  <line x1="468" y1="210" x2="632" y2="250" stroke="#757575" stroke-width="2" opacity="0.6"/>
  <line x1="468" y1="260" x2="632" y2="190" stroke="#757575" stroke-width="2" opacity="0.6"/>
  <line x1="468" y1="260" x2="632" y2="250" stroke="#757575" stroke-width="2" opacity="0.6"/>
  <line x1="468" y1="310" x2="632" y2="190" stroke="#757575" stroke-width="2" opacity="0.6"/>
  <line x1="468" y1="310" x2="632" y2="250" stroke="#757575" stroke-width="2" opacity="0.6"/>
  <line x1="468" y1="360" x2="632" y2="190" stroke="#757575" stroke-width="2" opacity="0.6"/>
  <line x1="468" y1="360" x2="632" y2="250" stroke="#757575" stroke-width="2" opacity="0.6"/>
  
  <!-- Arrows -->
  <defs>
    <marker id="arrowhead" markerWidth="10" markerHeight="10" refX="9" refY="3" orient="auto">
      <polygon points="0 0, 10 3, 0 6" fill="#424242"/>
    </marker>
  </defs>
  
  <!-- Flow arrows -->
  <line x1="135" y1="220" x2="190" y2="220" stroke="#424242" stroke-width="3" marker-end="url(#arrowhead)"/>
  <line x1="340" y1="220" x2="390" y2="220" stroke="#424242" stroke-width="3" marker-end="url(#arrowhead)"/>
  <line x1="540" y1="220" x2="590" y2="220" stroke="#424242" stroke-width="3" marker-end="url(#arrowhead)"/>
</svg>
